 <svg  version="1.0" xmlns="http://www.w3.org/2000/svg"  width="300.000000pt" height="279.000000pt" viewBox="0 0 300.000000 279.000000"  preserveAspectRatio="xMidYMid meet">  <g transform="translate(0.000000,279.000000) scale(0.050000,-0.050000)" fill="#69443c" stroke="none"> <path d="M1185 5501 c-1007 -273 -1453 -1540 -926 -2631 279 -579 801 -1149 2041 -2229 193 -167 408 -355 479 -418 232 -204 208 -195 295 -117 42 37 103 90 136 118 2174 1847 2741 2589 2739 3586 -3 1706 -1838 2357 -2870 1018 l-87 -112 -40 57 c-399 564 -1183 887 -1767 728z"/> </g> </svg> 