 <svg version="1.0" xmlns="http://www.w3.org/2000/svg"  width="200.000000pt" height="200.000000pt" viewBox="0 0 323.000000 323.000000"  preserveAspectRatio="xMidYMid meet">  <g transform="translate(0.000000,323.000000) scale(0.100000,-0.100000)" fill="#69443c" stroke="none"> <path d="M688 3200 c-320 -55 -565 -280 -655 -600 -17 -61 -18 -125 -18 -990 0 -865 1 -929 18 -990 41 -144 105 -258 201 -358 107 -112 221 -180 373 -224 l78 -23 925 0 c865 0 929 1 990 18 144 41 258 105 358 201 112 107 180 221 224 373 l23 78 0 925 c0 865 -1 929 -18 990 -41 144 -105 258 -201 358 -105 110 -217 178 -368 224 l-73 22 -905 2 c-498 1 -926 -2 -952 -6z m1382 -760 l0 -170 -124 0 c-117 0 -127 -1 -153 -24 -26 -22 -27 -29 -31 -125 l-4 -101 156 0 156 0 0 -40 c0 -21 -4 -83 -10 -137 -5 -54 -12 -128 -15 -165 l-7 -68 -149 0 -149 0 0 -495 0 -495 -190 0 -190 0 0 495 0 495 -105 0 -105 0 0 205 0 205 90 0 90 0 0 108 c0 176 38 289 122 368 54 51 80 67 143 87 67 22 90 24 298 25 l177 2 0 -170z"/> </g> </svg> 