 <svg  version="1.0" xmlns="http://www.w3.org/2000/svg"  width="300.000000pt" height="300.000000pt" viewBox="0 0 300.000000 300.000000"  preserveAspectRatio="xMidYMid meet">  <g transform="translate(0.000000,300.000000) scale(0.050000,-0.050000)" fill="#69443c" stroke="none"> <path d="M1750 5619 c-649 -96 -1203 -616 -1353 -1271 -39 -171 -39 -2525 0 -2696 148 -645 681 -1152 1327 -1264 234 -40 2483 -31 2645 11 613 159 1096 649 1234 1253 39 171 39 2525 0 2696 -138 604 -621 1094 -1234 1253 -119 31 -2424 46 -2619 18z m2514 -421 c443 -92 842 -491 934 -934 30 -146 30 -2382 0 -2528 -92 -443 -491 -842 -934 -934 -146 -30 -2382 -30 -2528 0 -443 92 -842 491 -934 934 -30 146 -30 2382 0 2528 90 433 470 822 906 928 137 33 2399 39 2556 6z"/> <path d="M4389 4733 c-226 -102 -229 -424 -5 -525 184 -83 396 58 396 262 0 200 -213 343 -391 263z"/> <path d="M2760 4441 c-987 -189 -1510 -1259 -1047 -2143 619 -1184 2391 -977 2730 319 266 1019 -657 2020 -1683 1824z m509 -423 c541 -105 922 -733 780 -1284 -316 -1219 -2096 -993 -2091 266 2 686 606 1155 1311 1018z"/> </g> </svg> 