 <svg  version="1.0" xmlns="http://www.w3.org/2000/svg"  width="300.000000pt" height="300.000000pt" viewBox="0 0 300.000000 300.000000"  preserveAspectRatio="xMidYMid meet">  <g transform="translate(0.000000,300.000000) scale(0.050000,-0.050000)" fill="#ffffff" stroke="none"> <path d="M1104 5767 c-203 -385 -188 -1070 36 -1592 l80 -187 -41 -115 c-104 -297 -89 -631 41 -909 58 -124 60 -135 27 -154 -164 -93 -313 -314 -377 -560 -72 -274 -57 -635 20 -510 26 42 71 21 59 -27 -60 -238 174 -648 486 -853 197 -129 231 -131 185 -11 -25 66 -17 64 64 -11 36 -34 100 -85 141 -113 75 -50 75 -51 75 -190 0 -260 152 -378 336 -262 42 27 51 25 106 -22 108 -91 250 -46 296 94 l22 65 338 0 338 0 23 -64 c53 -147 195 -188 296 -85 51 52 62 56 84 31 151 -183 420 35 362 294 -16 71 -13 77 66 137 46 35 113 92 150 125 l66 62 -14 -75 c-16 -88 -14 -88 96 -32 350 178 657 659 588 921 -10 38 36 51 57 16 38 -61 70 -16 70 97 0 424 -166 808 -416 964 l-47 29 63 134 c131 279 145 608 40 910 l-41 120 60 134 c237 527 267 1135 78 1574 -51 120 -65 113 -96 -47 -68 -354 -192 -476 -643 -632 -125 -43 -271 -99 -323 -125 -93 -45 -97 -45 -190 -12 -399 140 -960 136 -1376 -10 -50 -17 -75 -14 -140 19 -43 22 -200 83 -349 135 -446 155 -528 237 -627 628 -37 148 -43 158 -69 109z m330 -752 c75 -39 231 -104 346 -145 380 -135 545 -232 767 -455 l196 -197 -71 136 c-40 75 -118 193 -175 262 -56 69 -99 129 -94 134 96 95 1097 95 1194 0 4 -4 -39 -64 -95 -133 -56 -70 -135 -190 -175 -267 l-74 -140 155 165 c239 253 386 342 852 514 295 109 345 136 465 247 97 91 98 91 84 33 -72 -315 -297 -524 -869 -809 -390 -195 -520 -282 -751 -505 l-196 -188 -152 152 c-224 225 -394 343 -766 530 -539 271 -694 395 -825 657 -90 180 -96 254 -11 152 32 -40 120 -104 195 -143z m3442 -230 c-25 -196 -154 -605 -191 -605 -6 0 -61 56 -124 124 l-113 123 182 182 c100 99 194 210 209 246 41 103 56 76 37 -70z m-3690 26 c31 -50 125 -153 207 -230 83 -77 147 -148 144 -158 -4 -9 -58 -72 -119 -140 l-112 -124 -71 186 c-91 240 -160 555 -122 555 9 0 42 -40 73 -89z m3298 -638 c691 -869 -202 -2111 -1149 -1598 -167 90 -170 98 -108 300 92 301 -31 502 -278 456 -194 -36 -259 -191 -182 -438 67 -214 69 -200 -35 -271 -731 -504 -1681 252 -1426 1134 72 245 306 584 405 584 57 0 513 -228 680 -340 145 -97 569 -501 569 -543 0 -43 75 -10 117 52 172 253 632 592 1059 780 l152 68 58 -41 c31 -22 94 -87 138 -143z m-1395 -1024 c49 -49 -15 -394 -88 -475 -17 -18 -122 314 -121 384 0 105 136 163 209 91z m-1634 -516 c47 -47 136 -116 198 -154 264 -161 265 -310 9 -769 -152 -272 -202 -403 -219 -570 l-13 -130 -43 70 c-75 122 -112 262 -115 433 -1 90 -9 159 -17 154 -32 -20 -76 -130 -92 -231 l-17 -106 -27 60 c-54 117 -37 348 35 487 70 137 60 147 -72 72 -117 -67 -118 -69 29 170 157 255 147 276 -57 116 l-76 -60 13 58 c41 181 165 367 299 450 77 47 66 50 165 -50z m3242 58 c123 -63 266 -275 311 -458 l14 -57 -63 47 c-95 72 -167 117 -186 117 -20 0 82 -184 191 -345 90 -133 89 -135 -41 -55 -140 86 -149 76 -70 -75 77 -147 88 -337 27 -475 l-26 -60 -15 93 c-15 92 -70 229 -99 247 -9 5 -15 -56 -15 -135 1 -161 -41 -328 -109 -435 l-44 -70 -15 120 c-19 162 -59 265 -187 490 -160 281 -195 372 -206 532 -11 177 6 210 153 288 64 34 161 107 214 161 112 114 96 107 166 70z m-1696 -371 c13 0 32 40 78 166 l21 57 55 -39 c200 -141 515 -224 724 -190 l121 19 0 -102 c0 -160 53 -325 170 -533 264 -466 270 -498 126 -651 -184 -194 -273 -248 -389 -234 -86 10 -106 5 -161 -41 -58 -49 -65 -50 -119 -22 -102 53 -224 9 -275 -99 -38 -80 -82 -91 -349 -91 -234 0 -343 17 -343 51 0 106 -188 197 -293 143 -54 -28 -61 -27 -116 20 -52 45 -70 49 -170 38 l-112 -13 -130 107 c-296 244 -297 288 -21 774 116 204 186 418 179 548 l-5 102 69 -10 c233 -34 531 29 725 152 l104 67 48 -110 c27 -60 55 -109 63 -109z m-825 -1664 c59 -59 7 -276 -66 -276 -68 0 -95 176 -39 256 35 49 69 56 105 20z m1753 -20 c56 -81 29 -256 -39 -256 -44 0 -94 91 -94 170 0 122 74 170 133 86z m-1413 -116 c12 -181 -101 -211 -129 -34 -14 86 19 139 81 130 34 -5 43 -22 48 -96z m1092 38 c19 -56 -38 -206 -78 -203 -38 2 -77 164 -52 218 30 66 104 57 130 -15z"/> <path d="M2130 3858 c-246 -60 -390 -332 -307 -580 121 -363 643 -401 821 -60 183 351 -125 735 -514 640z m405 -229 c63 -44 93 -165 54 -223 -45 -69 -121 -60 -169 19 -93 153 -14 294 115 204z"/> <path d="M3616 3853 c-472 -131 -403 -816 89 -867 299 -30 520 192 491 494 -27 274 -300 450 -580 373z m-16 -223 c58 -70 -23 -270 -109 -270 -94 0 -129 69 -90 174 45 118 142 164 199 96z"/> <path d="M2061 1879 c-2 -208 104 -195 169 21 l15 50 -49 -45 c-62 -57 -68 -57 -105 10 l-29 55 -1 -91z"/> <path d="M3902 1920 c-15 -27 -31 -54 -35 -58 -4 -5 -31 13 -60 40 l-53 48 15 -60 c50 -212 200 -184 167 32 l-7 48 -27 -50z"/> <path d="M2401 1867 c-1 -159 81 -200 146 -73 48 93 44 151 -6 91 -48 -58 -64 -57 -106 10 l-34 55 0 -83z"/> <path d="M3553 1892 l-36 -56 -49 46 c-58 55 -66 19 -19 -93 54 -129 170 -39 147 115 -6 43 -7 43 -43 -12z"/> <path d="M2731 1821 c33 -213 126 -208 178 9 l14 60 -53 -50 -54 -50 -49 60 -50 60 14 -89z"/> <path d="M3090 1820 c40 -197 171 -198 170 -1 l-1 71 -38 -50 -38 -49 -54 49 -54 50 15 -70z"/> <path d="M3783 1545 c-34 -79 -58 -81 -117 -10 -60 74 -63 13 -4 -109 73 -151 168 -88 154 103 l-6 81 -27 -65z"/> <path d="M2160 1545 c3 -209 104 -277 171 -115 62 152 60 166 -10 100 -63 -59 -121 -43 -121 34 0 9 -9 16 -20 16 -11 0 -20 -16 -20 -35z"/> <path d="M2520 1520 c0 -68 63 -190 99 -190 34 0 92 94 112 180 l14 60 -64 -60 -64 -60 -49 60 -48 60 0 -50z"/> <path d="M2891 1500 c28 -162 118 -213 174 -100 59 118 48 179 -18 100 l-52 -62 -58 66 -59 66 13 -70z"/> <path d="M3270 1465 c45 -148 124 -181 167 -69 53 143 41 223 -17 114 -15 -27 -39 -50 -53 -50 -14 0 -41 23 -59 50 -52 79 -69 59 -38 -45z"/> <path d="M1920 1175 c0 -103 83 -125 130 -35 28 54 10 89 -20 40 -18 -28 -42 -25 -79 11 -28 29 -31 28 -31 -16z"/> <path d="M4035 1186 c-27 -27 -40 -29 -59 -10 -32 32 -56 30 -56 -5 0 -82 87 -110 131 -42 42 63 30 104 -16 57z"/> <path d="M3695 1133 c-42 -90 -58 -91 -123 -8 -51 65 -52 65 -52 14 0 -70 83 -229 120 -229 45 0 104 136 96 222 l-6 75 -35 -74z"/> <path d="M2262 1100 c-3 -236 158 -244 190 -10 l11 80 -47 -55 c-61 -71 -82 -69 -121 10 l-32 65 -1 -90z"/> <path d="M2660 1130 c-1 -215 175 -239 211 -29 l12 69 -50 -55 c-65 -70 -80 -69 -131 10 l-41 65 -1 -60z"/> <path d="M3112 1125 c57 -241 179 -249 219 -15 l13 80 -60 -70 -60 -70 -41 50 c-23 28 -42 57 -42 65 -1 8 -10 15 -21 15 -12 0 -15 -22 -8 -55z"/> </g> </svg> 