 <svg  version="1.0" xmlns="http://www.w3.org/2000/svg"  width="225.000000pt" height="225.000000pt" viewBox="0 0 225.000000 225.000000"  preserveAspectRatio="xMidYMid meet">  <g transform="translate(0.000000,225.000000) scale(0.050000,-0.050000)" fill="#69443c" stroke="none"> <path d="M2850 4024 c-426 -147 -695 -563 -639 -989 l13 -95 -80 0 c-495 0 -1152 301 -1611 738 l-218 209 -28 -52 c-167 -321 -85 -784 188 -1050 60 -59 106 -111 101 -115 -11 -12 -268 44 -314 69 -63 34 -67 27 -58 -94 21 -303 290 -630 603 -737 133 -45 97 -68 -108 -68 -99 0 -179 -5 -179 -11 0 -199 412 -544 712 -595 158 -27 158 -26 -7 -127 -329 -201 -543 -267 -925 -285 l-270 -12 180 -93 c1742 -893 3830 351 3830 2283 l0 136 197 197 c278 277 285 296 89 234 -84 -27 -194 -54 -244 -61 l-92 -13 114 105 c110 101 266 323 253 360 -4 9 -74 -13 -157 -49 -82 -37 -206 -82 -274 -100 l-123 -34 -87 69 c-258 205 -592 275 -866 180z"/> </g> </svg> 