 <svg  version="1.0" xmlns="http://www.w3.org/2000/svg"  width="300.000000pt" height="279.000000pt" viewBox="0 0 300.000000 279.000000"  preserveAspectRatio="xMidYMid meet">  <g transform="translate(0.000000,279.000000) scale(0.050000,-0.050000)" fill="#69443c" stroke="none"> <path d="M1161 5499 c-696 -182 -1109 -812 -1109 -1689 0 -978 435 -1596 2218 -3149 220 -192 470 -411 555 -487 187 -166 114 -196 645 267 1254 1094 1758 1604 2095 2119 1026 1567 -100 3473 -1695 2871 -281 -106 -716 -445 -821 -641 -49 -90 -49 -90 -139 41 -362 526 -1147 825 -1749 668z m464 -151 c157 -9 274 -30 286 -50 6 -10 26 -18 43 -18 18 0 81 -24 140 -53 59 -29 128 -54 152 -55 28 -2 43 -15 41 -37 -1 -19 6 -30 15 -24 10 6 18 2 18 -10 0 -13 20 -17 49 -10 41 11 47 7 38 -28 -9 -33 -3 -38 31 -29 33 8 42 1 42 -32 0 -27 13 -42 36 -42 43 0 151 -106 130 -127 -8 -8 6 -20 30 -26 24 -6 44 -20 44 -29 0 -10 11 -18 25 -18 35 0 80 -75 55 -90 -11 -7 -20 -22 -20 -34 0 -13 10 -12 29 3 30 25 119 10 103 -16 -20 -32 25 -74 51 -48 14 14 41 25 61 25 20 0 54 18 76 40 22 22 49 40 60 40 31 0 205 175 193 195 -6 10 2 20 18 22 16 2 43 5 60 6 17 2 36 29 43 60 10 51 27 66 70 60 7 -1 39 25 70 57 31 33 67 60 81 60 14 0 25 9 25 20 0 11 18 20 39 20 35 0 199 66 306 122 19 10 59 18 90 18 30 0 102 13 160 28 58 16 105 24 105 19 0 -4 19 2 43 14 27 15 46 16 55 3 6 -11 74 -29 149 -41 151 -23 177 -36 132 -64 -19 -12 -4 -14 45 -6 53 9 83 3 106 -20 17 -17 44 -27 59 -21 49 19 156 -50 145 -94 -10 -36 6 -47 60 -40 13 2 34 -15 46 -38 12 -23 31 -36 41 -29 10 6 19 -2 19 -19 0 -16 12 -37 28 -46 15 -9 46 -52 70 -96 23 -44 42 -68 42 -55 0 14 9 25 20 25 11 0 20 -13 20 -28 0 -16 11 -32 24 -37 14 -4 25 -39 25 -76 1 -47 10 -67 27 -64 15 4 22 -2 15 -13 -13 -21 51 -142 75 -142 9 0 11 -8 6 -18 -6 -9 8 -92 31 -183 51 -203 49 -887 -3 -979 -16 -27 -27 -57 -24 -66 2 -8 -13 -51 -34 -94 -21 -44 -34 -98 -28 -120 8 -31 3 -38 -21 -28 -18 7 -27 22 -20 33 8 12 4 15 -9 7 -13 -8 -18 -38 -11 -72 8 -39 1 -69 -21 -91 -17 -17 -32 -45 -32 -60 0 -16 -9 -29 -20 -29 -11 0 -20 -9 -20 -21 0 -11 -17 -38 -37 -60 -20 -22 -49 -64 -64 -94 -15 -30 -38 -68 -52 -85 -13 -16 -27 -39 -31 -50 -3 -11 -13 -18 -21 -15 -9 3 -26 -17 -39 -45 -12 -27 -34 -50 -49 -50 -15 0 -27 -13 -27 -30 0 -16 11 -30 23 -30 13 0 19 -5 13 -11 -6 -5 -34 -1 -63 10 -61 23 -69 8 -18 -31 33 -25 33 -28 -5 -55 -81 -58 -171 -155 -160 -172 6 -10 -17 -48 -50 -84 -41 -45 -60 -56 -60 -34 0 18 -15 38 -33 45 -26 11 -28 7 -9 -16 19 -22 10 -43 -47 -105 -39 -42 -71 -83 -71 -90 0 -8 -27 -20 -60 -27 -33 -7 -60 -22 -60 -32 0 -31 -124 -158 -143 -146 -9 6 -17 -5 -17 -24 0 -19 -6 -29 -13 -21 -15 14 -87 -43 -87 -69 0 -8 16 -19 35 -24 22 -6 15 -10 -19 -12 -60 -2 -116 -49 -116 -96 0 -25 -6 -26 -30 -6 -30 25 -37 16 -32 -41 2 -17 -22 -44 -52 -60 -79 -41 -146 -102 -146 -133 0 -14 -9 -26 -20 -26 -11 0 -20 10 -20 21 0 12 -9 16 -19 10 -11 -7 -15 -24 -9 -39 6 -16 -7 -31 -31 -37 -22 -6 -41 -26 -41 -43 0 -18 -13 -32 -30 -32 -16 0 -58 -29 -93 -65 -35 -36 -57 -53 -48 -38 13 22 8 23 -28 4 -35 -19 -39 -29 -19 -53 30 -37 8 -61 -28 -31 -34 28 -55 10 -39 -32 6 -18 3 -26 -7 -20 -24 15 -152 -94 -133 -113 7 -7 -7 -19 -31 -25 -24 -6 -38 -21 -30 -33 8 -13 0 -16 -21 -8 -18 7 -33 5 -33 -5 0 -11 -26 -34 -58 -53 -33 -20 -54 -46 -48 -61 7 -18 -5 -27 -34 -27 -30 0 -41 -9 -34 -28 8 -21 -6 -27 -56 -26 -37 1 -63 9 -58 18 6 9 3 16 -7 16 -9 0 -57 36 -106 79 -57 51 -102 76 -124 69 -19 -6 -35 -1 -35 11 0 11 9 21 20 21 38 0 20 41 -25 59 -25 9 -65 36 -89 59 -24 23 -54 42 -66 42 -12 0 -17 8 -11 19 7 10 -27 41 -74 69 -47 28 -80 54 -75 59 18 14 -110 107 -135 98 -14 -4 -25 4 -25 19 0 14 -20 35 -45 46 -24 11 -55 41 -67 66 -26 53 -79 94 -138 109 -35 9 -34 11 7 13 54 2 25 62 -29 62 -16 0 -28 9 -28 19 0 11 -35 36 -77 55 -52 24 -75 47 -72 71 4 25 -8 35 -43 35 -26 0 -48 9 -48 20 0 12 -22 31 -49 43 -28 13 -45 31 -39 40 6 10 -30 56 -80 104 -50 48 -85 93 -78 100 7 7 -1 13 -18 13 -17 0 -66 38 -108 85 -43 47 -84 83 -93 80 -8 -3 -13 2 -11 10 10 32 -68 122 -116 134 -27 7 -45 20 -39 29 5 9 -7 32 -28 51 -21 19 -33 47 -28 63 10 25 -15 38 -59 30 -10 -2 -11 6 -4 18 7 11 -11 29 -40 40 -29 11 -47 29 -40 40 7 11 -2 26 -19 32 -17 7 -31 25 -31 40 0 15 -23 42 -50 60 -28 18 -50 43 -50 57 0 13 -20 45 -45 72 -50 53 -57 81 -26 105 12 9 2 11 -21 5 -35 -10 -45 -1 -55 49 -7 33 -23 58 -37 55 -13 -3 -26 16 -27 41 -2 25 -23 66 -46 91 -51 55 -62 154 -13 113 26 -22 29 -20 18 7 -7 18 -23 33 -36 33 -39 0 -107 165 -140 340 -3 17 -12 62 -20 100 -25 124 -25 560 0 560 13 0 20 23 17 53 -4 30 6 91 20 135 15 45 33 116 40 157 7 41 20 75 29 75 9 0 30 36 47 80 30 75 75 109 75 57 0 -13 6 -18 13 -11 7 7 1 27 -13 43 -20 25 -18 40 13 84 20 29 46 66 57 83 11 17 52 62 90 101 39 38 67 74 64 79 -4 5 11 19 32 32 21 12 77 51 124 87 66 50 92 60 113 43 20 -17 27 -16 27 5 0 55 81 102 158 91 39 -6 61 -6 47 -1 -49 20 -24 47 43 47 42 0 72 11 79 30 7 17 36 30 67 30 45 -1 50 -5 26 -21 -24 -16 -19 -19 20 -14 30 3 48 17 44 34 -5 23 -1 23 25 2 17 -14 78 -29 136 -33z"/> <path d="M5033 5204 c-14 -22 10 -54 52 -70 44 -16 45 13 4 55 -36 35 -43 37 -56 15z"/> </g> </svg> 