 <svg  version="1.0" xmlns="http://www.w3.org/2000/svg"  width="750.000000pt" height="750.000000pt" viewBox="0 0 750.000000 750.000000"  preserveAspectRatio="xMidYMid meet">  <g transform="translate(0.000000,750.000000) scale(0.100000,-0.100000)" fill="#69443c" stroke="none"> <path d="M3425 6460 c-27 -5 -84 -13 -125 -19 -87 -13 -140 -25 -265 -58 -49 -14 -104 -28 -121 -32 -33 -9 -156 -53 -209 -77 -108 -46 -136 -59 -185 -84 -161 -81 -330 -184 -390 -237 -14 -13 -28 -23 -32 -23 -3 0 -13 -6 -20 -12 -7 -7 -47 -40 -88 -73 -71 -56 -255 -235 -310 -300 -185 -219 -339 -458 -429 -665 -50 -116 -59 -137 -84 -205 -39 -104 -53 -151 -77 -250 -12 -49 -25 -108 -31 -130 -9 -38 -17 -89 -39 -245 -12 -83 -12 -523 0 -615 19 -147 30 -221 39 -255 5 -19 17 -66 26 -105 42 -173 99 -329 200 -550 115 -247 391 -613 608 -805 50 -45 107 -95 124 -111 35 -31 53 -37 53 -16 0 6 0 195 0 419 0 237 4 437 10 480 15 98 51 189 104 263 34 47 164 175 178 175 5 0 24 11 41 24 18 13 66 40 107 61 41 20 88 43 103 51 16 8 35 14 42 14 8 0 29 6 47 14 18 7 60 21 93 31 33 9 76 23 95 30 84 30 137 45 158 45 24 0 81 -27 93 -43 8 -11 47 -34 72 -43 9 -3 17 -10 17 -14 0 -5 12 -13 28 -20 51 -21 72 -35 72 -46 0 -17 -25 -24 -87 -24 -31 0 -54 -3 -50 -6 9 -10 429 -5 462 5 22 7 -6 10 -106 10 -125 1 -139 3 -180 26 -24 13 -53 29 -64 35 -49 26 -144 89 -172 113 -21 18 -21 22 -8 46 26 46 45 103 45 131 0 15 3 42 6 59 6 26 10 30 28 25 20 -6 39 -20 74 -56 9 -10 22 -18 28 -18 6 0 17 -7 24 -15 14 -16 50 -21 50 -6 0 5 -10 13 -22 16 -54 18 -184 129 -243 210 -56 75 -113 187 -134 262 -13 46 -18 52 -59 59 -38 7 -65 27 -103 74 -46 57 -62 103 -66 192 -4 68 -2 81 17 105 45 58 80 64 152 28 27 -14 54 -25 58 -25 5 0 10 19 12 43 3 39 5 42 36 45 17 2 32 7 32 11 0 6 -82 30 -160 47 -14 3 -36 14 -49 23 l-23 18 17 133 c11 86 14 158 10 201 -8 74 -5 78 55 90 31 6 29 7 -20 8 -53 1 -59 -2 -132 -58 -42 -32 -92 -66 -110 -75 -18 -9 -40 -20 -48 -25 -86 -49 -196 -56 -259 -17 -109 69 -167 243 -141 419 27 183 99 315 261 477 63 63 204 177 239 193 8 4 29 16 45 27 75 48 267 135 360 164 218 66 356 80 676 72 145 -4 323 -10 395 -14 72 -4 169 -4 215 0 233 20 308 21 357 3 50 -18 155 -70 213 -104 19 -11 45 -25 57 -31 43 -19 137 -123 166 -185 37 -79 39 -194 5 -270 -36 -80 -118 -153 -240 -213 -59 -29 -112 -52 -118 -52 -21 0 -146 -63 -183 -92 -34 -26 -38 -35 -38 -73 0 -35 -4 -47 -22 -56 -22 -12 -22 -12 -2 -19 17 -7 22 -27 38 -151 10 -79 24 -170 32 -202 22 -90 19 -116 -13 -128 -103 -41 -132 -52 -163 -58 -19 -4 -51 -13 -70 -19 -53 -16 -136 -32 -225 -42 -44 -6 -95 -15 -115 -22 -24 -8 -147 -12 -412 -12 -251 -1 -374 -4 -367 -11 16 -16 650 -20 735 -5 38 7 105 15 149 19 44 4 90 13 102 19 12 7 37 12 56 12 18 0 54 7 80 16 25 8 58 14 74 12 27 -3 28 -6 31 -60 2 -48 6 -58 21 -58 10 0 24 6 30 13 20 25 90 40 123 26 59 -24 89 -150 54 -231 -8 -18 -17 -40 -21 -48 -27 -67 -79 -119 -128 -127 -29 -4 -44 -14 -58 -37 -10 -17 -19 -39 -19 -48 0 -16 -5 -28 -51 -118 -68 -133 -212 -285 -316 -329 -11 -6 -24 -15 -28 -20 -3 -6 -15 -11 -25 -11 -10 0 -25 -7 -34 -15 -8 -8 -25 -15 -38 -15 -13 0 -33 -7 -44 -15 -10 -8 -32 -15 -48 -15 -42 0 -160 -22 -170 -31 -5 -5 22 -6 60 -3 112 8 153 15 159 25 4 5 15 9 27 9 11 0 32 6 46 14 15 7 47 23 72 35 68 33 163 98 181 124 17 25 29 -10 29 -86 0 -52 6 -99 17 -129 19 -53 9 -78 -31 -78 -11 0 -30 -7 -40 -15 -11 -8 -32 -15 -47 -15 -14 0 -32 -7 -39 -15 -7 -8 -29 -15 -49 -15 -20 0 -49 -7 -65 -15 -15 -8 -48 -15 -72 -15 -24 0 -61 -6 -81 -14 -21 -8 -77 -16 -126 -19 -48 -2 -93 -9 -99 -15 -15 -15 126 -16 192 -1 25 6 73 14 107 19 35 5 72 14 82 20 11 5 32 10 48 10 15 0 41 7 57 15 15 8 35 15 43 15 17 0 58 17 148 61 68 33 81 34 127 15 39 -16 92 -35 133 -46 163 -48 202 -62 308 -116 207 -104 338 -231 411 -399 l31 -70 3 -483 c3 -418 5 -484 18 -489 8 -3 23 3 33 13 10 11 49 46 87 78 227 196 450 470 593 727 36 66 121 237 121 245 0 3 8 24 19 47 46 103 113 314 142 446 13 58 37 204 49 296 12 90 12 519 0 610 -24 188 -35 245 -77 400 -14 50 -28 104 -32 121 -12 47 -70 199 -106 279 -61 135 -193 377 -215 395 -3 3 -17 23 -30 45 -13 22 -35 51 -47 65 -13 14 -23 28 -23 32 0 3 -6 13 -12 20 -7 7 -31 36 -53 63 -22 28 -44 55 -50 61 -5 6 -41 46 -80 88 -131 145 -384 351 -566 462 -51 31 -102 60 -114 65 -11 5 -27 13 -35 19 -14 9 -163 79 -240 112 -61 27 -173 66 -250 88 -212 60 -247 67 -490 100 -79 11 -545 11 -615 0z"/> <path d="M3684 5595 c-4 -9 -1 -69 7 -134 8 -64 14 -147 14 -186 -1 -92 -24 -263 -42 -297 -17 -34 -17 -58 0 -58 17 0 43 78 53 160 17 134 3 505 -20 528 -3 2 -9 -3 -12 -13z"/> <path d="M4920 5561 c0 -11 -67 -79 -208 -210 -136 -125 -252 -277 -252 -328 0 -19 27 -16 34 5 3 9 15 31 26 47 11 17 24 41 30 54 6 13 88 101 183 196 95 94 180 182 190 195 19 27 22 50 7 50 -5 0 -10 -4 -10 -9z"/> <path d="M4104 5353 c-3 -16 -12 -46 -20 -68 -8 -23 -14 -50 -14 -62 0 -11 -7 -34 -15 -49 -8 -16 -15 -38 -15 -50 0 -11 -7 -29 -15 -40 -8 -10 -15 -28 -15 -40 0 -11 -7 -29 -15 -40 -19 -25 -19 -64 -1 -64 8 0 22 21 31 48 9 26 23 63 30 82 6 19 18 51 25 70 16 47 30 112 37 183 6 59 -2 78 -13 30z"/> <path d="M4470 4963 c-44 -8 -47 -23 -4 -23 48 0 84 9 84 21 0 9 -35 10 -80 2z"/> <path d="M4293 4933 c-18 -2 -33 -9 -33 -15 0 -13 140 -2 154 12 10 10 -53 11 -121 3z"/> <path d="M4078 4903 c-59 -5 -63 -23 -5 -23 66 0 147 12 147 21 0 9 -47 9 -142 2z"/> <path d="M3425 4870 l-320 -5 418 -3 c277 -1 416 1 412 8 -4 6 -45 9 -98 8 -51 -2 -236 -5 -412 -8z"/> <path d="M3086 4360 c15 -15 154 -26 154 -13 0 10 -75 23 -134 23 -21 0 -27 -3 -20 -10z"/> <path d="M3392 3338 c5 -15 48 -24 48 -10 0 10 -23 22 -42 22 -5 0 -8 -6 -6 -12z"/> <path d="M3450 3312 c0 -10 60 -25 68 -17 8 8 0 12 -35 20 -19 4 -33 3 -33 -3z"/> <path d="M3581 3269 c20 -4 49 -4 65 1 23 7 16 8 -36 8 -58 0 -61 -1 -29 -9z"/> <path d="M3118 3018 c-3 -7 -3 -35 -2 -63 2 -27 4 -142 6 -255 l2 -205 6 245 c3 135 10 255 14 268 6 17 5 22 -7 22 -8 0 -17 -6 -19 -12z"/> <path d="M3283 2817 c-41 -18 -38 -88 5 -99 43 -12 81 27 67 70 -8 27 -45 41 -72 29z"/> <path d="M3259 2394 c-21 -57 27 -102 76 -70 47 31 26 96 -31 96 -28 0 -36 -5 -45 -26z"/> <path d="M3277 2009 c-31 -24 -34 -45 -11 -77 22 -31 63 -26 84 10 17 31 10 51 -26 75 -18 12 -24 11 -47 -8z"/> <path d="M3148 1818 c-2 -79 -1 -260 2 -403 5 -251 6 -246 8 143 1 221 0 402 -2 402 -3 0 -6 -64 -8 -142z"/> <path d="M3270 1600 c-11 -11 -20 -27 -20 -35 0 -21 36 -55 58 -55 45 1 66 56 33 89 -26 26 -45 27 -71 1z"/> <path d="M3266 1198 c-9 -12 -16 -30 -16 -38 0 -18 40 -60 56 -60 15 0 54 44 54 61 0 26 -31 59 -55 59 -13 0 -31 -10 -39 -22z"/> </g> </svg> 